<svg width="18" height="18" viewBox="0 0 18 18" fill="none" xmlns="http://www.w3.org/2000/svg">
<path d="M13.6432 4.35682C14.9114 5.625 15.5455 7.17273 15.5455 9C15.5455 10.8273 14.9114 12.375 13.6432 13.6432C12.375 14.9114 10.8273 15.5455 9 15.5455C7.17273 15.5455 5.625 14.9114 4.35682 13.6432C3.08864 12.375 2.45455 10.8273 2.45455 9C2.45455 7.17273 3.08864 5.625 4.35682 4.35682C5.625 3.08864 7.17273 2.45455 9 2.45455C10.8273 2.45455 12.375 3.08864 13.6432 4.35682ZM12.4773 12.4773C13.4318 11.5227 13.9091 10.3636 13.9091 9C13.9091 7.63636 13.4318 6.47727 12.4773 5.52273C11.5227 4.56818 10.3636 4.09091 9 4.09091C7.63636 4.09091 6.47727 4.56818 5.52273 5.52273C4.56818 6.47727 4.09091 7.63636 4.09091 9C4.09091 10.3636 4.56818 11.5227 5.52273 12.4773C6.47727 13.4318 7.63636 13.9091 9 13.9091C10.3636 13.9091 11.5227 13.4318 12.4773 12.4773ZM6.37159 7.94659C6.52841 8.10341 6.72273 8.18182 6.95455 8.18182C7.18636 8.18182 7.38068 8.10341 7.5375 7.94659C7.69432 7.78977 7.77273 7.59545 7.77273 7.36364C7.77273 7.13182 7.69432 6.9375 7.5375 6.78068C7.38068 6.62386 7.18636 6.54545 6.95455 6.54545C6.72273 6.54545 6.52841 6.62386 6.37159 6.78068C6.21477 6.9375 6.13636 7.13182 6.13636 7.36364C6.13636 7.59545 6.21477 7.78977 6.37159 7.94659ZM10.4625 7.94659C10.6193 8.10341 10.8136 8.18182 11.0455 8.18182C11.2773 8.18182 11.4716 8.10341 11.6284 7.94659C11.7852 7.78977 11.8636 7.59545 11.8636 7.36364C11.8636 7.13182 11.7852 6.9375 11.6284 6.78068C11.4716 6.62386 11.2773 6.54545 11.0455 6.54545C10.8136 6.54545 10.6193 6.62386 10.4625 6.78068C10.3057 6.9375 10.2273 7.13182 10.2273 7.36364C10.2273 7.59545 10.3057 7.78977 10.4625 7.94659ZM0 3.27273V1.63636C0 1.18636 0.160227 0.801136 0.480682 0.480682C0.801136 0.160227 1.18636 0 1.63636 0H3.27273C3.50455 0 3.69886 0.0784091 3.85568 0.235227C4.0125 0.392045 4.09091 0.586364 4.09091 0.818182C4.09091 1.05 4.0125 1.24432 3.85568 1.40114C3.69886 1.55795 3.50455 1.63636 3.27273 1.63636H1.63636V3.27273C1.63636 3.50455 1.55795 3.69886 1.40114 3.85568C1.24432 4.0125 1.05 4.09091 0.818182 4.09091C0.586364 4.09091 0.392045 4.0125 0.235227 3.85568C0.0784091 3.69886 0 3.50455 0 3.27273ZM3.27273 18H1.63636C1.18636 18 0.801136 17.8398 0.480682 17.5193C0.160227 17.1989 0 16.8136 0 16.3636V14.7273C0 14.4955 0.0784091 14.3011 0.235227 14.1443C0.392045 13.9875 0.586364 13.9091 0.818182 13.9091C1.05 13.9091 1.24432 13.9875 1.40114 14.1443C1.55795 14.3011 1.63636 14.4955 1.63636 14.7273V16.3636H3.27273C3.50455 16.3636 3.69886 16.442 3.85568 16.5989C4.0125 16.7557 4.09091 16.95 4.09091 17.1818C4.09091 17.4136 4.0125 17.608 3.85568 17.7648C3.69886 17.9216 3.50455 18 3.27273 18ZM16.3636 18H14.7273C14.4955 18 14.3011 17.9216 14.1443 17.7648C13.9875 17.608 13.9091 17.4136 13.9091 17.1818C13.9091 16.95 13.9875 16.7557 14.1443 16.5989C14.3011 16.442 14.4955 16.3636 14.7273 16.3636H16.3636V14.7273C16.3636 14.4955 16.442 14.3011 16.5989 14.1443C16.7557 13.9875 16.95 13.9091 17.1818 13.9091C17.4136 13.9091 17.608 13.9875 17.7648 14.1443C17.9216 14.3011 18 14.4955 18 14.7273V16.3636C18 16.8136 17.8398 17.1989 17.5193 17.5193C17.1989 17.8398 16.8136 18 16.3636 18ZM16.3636 3.27273V1.63636H14.7273C14.4955 1.63636 14.3011 1.55795 14.1443 1.40114C13.9875 1.24432 13.9091 1.05 13.9091 0.818182C13.9091 0.586364 13.9875 0.392045 14.1443 0.235227C14.3011 0.0784091 14.4955 0 14.7273 0H16.3636C16.8136 0 17.1989 0.160227 17.5193 0.480682C17.8398 0.801136 18 1.18636 18 1.63636V3.27273C18 3.50455 17.9216 3.69886 17.7648 3.85568C17.608 4.0125 17.4136 4.09091 17.1818 4.09091C16.95 4.09091 16.7557 4.0125 16.5989 3.85568C16.442 3.69886 16.3636 3.50455 16.3636 3.27273Z" fill="url(#paint0_linear_4820_26796)"/>
<defs>
<linearGradient id="paint0_linear_4820_26796" x1="0.09" y1="4.19095e-08" x2="18.09" y2="18" gradientUnits="userSpaceOnUse">
<stop stop-color="#DDAF59"/>
<stop offset="1" stop-color="#E60013"/>
</linearGradient>
</defs>
</svg>
