<svg width="18" height="18" viewBox="0 0 18 18" fill="none" xmlns="http://www.w3.org/2000/svg">
<path d="M8.23666 9.71053H11.8421C12.0434 9.71053 12.2121 9.6424 12.3482 9.50613C12.4845 9.36987 12.5526 9.20108 12.5526 8.99976C12.5526 8.79829 12.4845 8.62958 12.3482 8.49363C12.2121 8.35753 12.0434 8.28947 11.8421 8.28947H8.23666L9.49926 7.02687C9.63032 6.89771 9.69584 6.73334 9.69584 6.53376C9.69584 6.33418 9.63032 6.16879 9.49926 6.03758C9.36805 5.90653 9.20266 5.841 9.00308 5.841C8.8035 5.841 8.63913 5.90653 8.50997 6.03758L6.147 8.40055C5.97568 8.57187 5.89003 8.77168 5.89003 9C5.89003 9.22832 5.97568 9.42813 6.147 9.59945L8.50997 11.9624C8.64118 12.0935 8.80603 12.1575 9.0045 12.1545C9.20313 12.1515 9.36805 12.0844 9.49926 11.9532C9.63032 11.822 9.69584 11.6566 9.69584 11.457C9.69584 11.2574 9.63032 11.0931 9.49926 10.9639L8.23666 9.71053ZM9.00166 18C7.75682 18 6.58674 17.7638 5.49142 17.2914C4.3961 16.8189 3.44337 16.1778 2.63321 15.368C1.82305 14.5581 1.18161 13.6058 0.708868 12.5109C0.236289 11.4161 0 10.2463 0 9.00166C0 7.75682 0.23621 6.58674 0.708632 5.49142C1.18105 4.3961 1.82218 3.44337 2.63203 2.63321C3.44187 1.82305 4.39421 1.18161 5.48905 0.708868C6.5839 0.236289 7.75366 0 8.99834 0C10.2432 0 11.4133 0.23621 12.5086 0.708631C13.6039 1.18105 14.5566 1.82218 15.3668 2.63203C16.1769 3.44187 16.8184 4.39421 17.2911 5.48905C17.7637 6.5839 18 7.75366 18 8.99834C18 10.2432 17.7638 11.4133 17.2914 12.5086C16.8189 13.6039 16.1778 14.5566 15.368 15.3668C14.5581 16.1769 13.6058 16.8184 12.5109 17.2911C11.4161 17.7637 10.2463 18 9.00166 18ZM9 16.5789C11.1158 16.5789 12.9079 15.8447 14.3763 14.3763C15.8447 12.9079 16.5789 11.1158 16.5789 9C16.5789 6.88421 15.8447 5.09211 14.3763 3.62368C12.9079 2.15526 11.1158 1.42105 9 1.42105C6.88421 1.42105 5.09211 2.15526 3.62368 3.62368C2.15526 5.09211 1.42105 6.88421 1.42105 9C1.42105 11.1158 2.15526 12.9079 3.62368 14.3763C5.09211 15.8447 6.88421 16.5789 9 16.5789Z" fill="url(#paint0_linear_4820_26629)"/>
<defs>
<linearGradient id="paint0_linear_4820_26629" x1="0.09" y1="4.19095e-08" x2="18.09" y2="18" gradientUnits="userSpaceOnUse">
<stop stop-color="#DDAF59"/>
<stop offset="1" stop-color="#E60013"/>
</linearGradient>
</defs>
</svg>
