<svg width="18" height="18" viewBox="0 0 18 18" fill="none" xmlns="http://www.w3.org/2000/svg">
<path d="M9.76334 9.71053H6.15789C5.95658 9.71053 5.78787 9.6424 5.65176 9.50613C5.5155 9.36987 5.44737 9.20108 5.44737 8.99976C5.44737 8.79829 5.5155 8.62958 5.65176 8.49363C5.78787 8.35753 5.95658 8.28947 6.15789 8.28947H9.76334L8.50074 7.02687C8.36968 6.89771 8.30416 6.73334 8.30416 6.53376C8.30416 6.33418 8.36968 6.16879 8.50074 6.03758C8.63195 5.90653 8.79734 5.841 8.99692 5.841C9.1965 5.841 9.36087 5.90653 9.49003 6.03758L11.853 8.40055C12.0243 8.57187 12.11 8.77168 12.11 9C12.11 9.22832 12.0243 9.42813 11.853 9.59945L9.49003 11.9624C9.35882 12.0935 9.19397 12.1575 8.9955 12.1545C8.79687 12.1515 8.63195 12.0844 8.50074 11.9532C8.36968 11.822 8.30416 11.6566 8.30416 11.457C8.30416 11.2574 8.36968 11.0931 8.50074 10.9639L9.76334 9.71053ZM8.99834 18C10.2432 18 11.4133 17.7638 12.5086 17.2914C13.6039 16.8189 14.5566 16.1778 15.3668 15.368C16.1769 14.5581 16.8184 13.6058 17.2911 12.5109C17.7637 11.4161 18 10.2463 18 9.00166C18 7.75682 17.7638 6.58674 17.2914 5.49142C16.8189 4.3961 16.1778 3.44337 15.368 2.63321C14.5581 1.82305 13.6058 1.18161 12.5109 0.708868C11.4161 0.236289 10.2463 0 9.00166 0C7.75682 0 6.58674 0.23621 5.49142 0.708631C4.3961 1.18105 3.44337 1.82218 2.63321 2.63203C1.82305 3.44187 1.1816 4.39421 0.708868 5.48905C0.236288 6.5839 0 7.75366 0 8.99834C0 10.2432 0.23621 11.4133 0.708632 12.5086C1.18105 13.6039 1.82218 14.5566 2.63203 15.3668C3.44187 16.1769 4.39421 16.8184 5.48905 17.2911C6.58389 17.7637 7.75366 18 8.99834 18ZM9 16.5789C6.88421 16.5789 5.0921 15.8447 3.62368 14.3763C2.15526 12.9079 1.42105 11.1158 1.42105 9C1.42105 6.88421 2.15526 5.09211 3.62368 3.62368C5.0921 2.15526 6.88421 1.42105 9 1.42105C11.1158 1.42105 12.9079 2.15526 14.3763 3.62368C15.8447 5.09211 16.5789 6.88421 16.5789 9C16.5789 11.1158 15.8447 12.9079 14.3763 14.3763C12.9079 15.8447 11.1158 16.5789 9 16.5789Z" fill="url(#paint0_linear_4820_26766)"/>
<defs>
<linearGradient id="paint0_linear_4820_26766" x1="17.91" y1="4.19095e-08" x2="-0.09" y2="18" gradientUnits="userSpaceOnUse">
<stop stop-color="#DDAF59"/>
<stop offset="1" stop-color="#E60013"/>
</linearGradient>
</defs>
</svg>
